<?xml version="1.0" encoding="UTF-8" standalone="no"?>
<!DOCTYPE svg PUBLIC "-//W3C//DTD SVG 1.1//EN" "http://www.w3.org/Graphics/SVG/1.1/DTD/svg11.dtd">
<svg xmlns="http://www.w3.org/2000/svg" version="1.1" viewBox="0.00 0.00 300.00 47.00">
<g stroke-width="2.00" fill="none" stroke-linecap="butt">
<path stroke="#2e2c22" vector-effect="non-scaling-stroke" d="
  M 299.64 15.97
  Q 295.93 20.51 295.50 22.50
  Q 294.51 27.10 293.00 30.77
  Q 290.39 37.13 289.97 38.25
  Q 288.96 40.93 285.96 42.18
  A 0.82 0.82 0.0 0 0 285.45 42.91
  L 285.38 44.07"
/>
<path stroke="#2e2c22" vector-effect="non-scaling-stroke" d="
  M 1.37 32.40
  L 5.27 25.57
  A 1.68 1.66 4.7 0 1 6.19 24.80
  Q 6.70 24.62 7.23 24.64
  A 0.57 0.56 85.6 0 0 7.81 23.96
  Q 7.45 22.18 6.49 22.06"
/>
<path stroke="#2e2c22" vector-effect="non-scaling-stroke" d="
  M 6.22 20.00
  L 6.56 20.18
  A 0.56 0.56 0.0 0 0 7.35 19.89
  L 10.02 13.16"
/>
<path stroke="#520e10" vector-effect="non-scaling-stroke" d="
  M 244.54 15.03
  L 243.19 18.54"
/>
<path stroke="#6c0e13" vector-effect="non-scaling-stroke" d="
  M 243.19 18.54
  L 237.02 33.41"
/>
<path stroke="#610f12" vector-effect="non-scaling-stroke" d="
  M 237.02 33.41
  L 235.85 37.17"
/>
<path stroke="#410a0b" vector-effect="non-scaling-stroke" d="
  M 235.85 37.17
  Q 235.77 39.43 238.03 40.76
  Q 241.07 42.55 245.76 42.52
  Q 261.77 42.40 277.78 42.19
  C 282.30 42.13 286.98 41.38 288.57 36.65"
/>
<path stroke="#610f12" vector-effect="non-scaling-stroke" d="
  M 288.57 36.65
  L 290.91 30.93"
/>
<path stroke="#730d12" vector-effect="non-scaling-stroke" d="
  M 290.91 30.93
  L 293.63 23.73
  A 0.39 0.38 4.6 0 0 293.19 23.22
  L 265.15 28.67
  A 1.53 1.39 21.1 0 0 264.74 28.83
  Q 263.70 29.46 263.36 30.93
  A 0.71 0.70 85.7 0 0 264.31 31.75
  Q 265.20 31.40 266.36 31.59"
/>
<path stroke="#610f12" vector-effect="non-scaling-stroke" d="
  M 266.36 31.59
  Q 263.23 36.71 260.20 33.09"
/>
<path stroke="#6c0e13" vector-effect="non-scaling-stroke" d="
  M 260.20 33.09
  L 266.11 19.34"
/>
<path stroke="#520e10" vector-effect="non-scaling-stroke" d="
  M 266.11 19.34
  Q 268.16 17.36 271.11 18.37
  A 0.52 0.51 20.9 0 1 271.42 19.05
  L 268.81 25.20
  A 0.40 0.39 -84.3 0 0 269.25 25.74
  L 293.75 20.97
  A 1.96 1.96 0.0 0 0 294.97 20.21
  Q 296.30 18.41 296.84 15.88"
/>
<path stroke="#410a0b" vector-effect="non-scaling-stroke" d="
  M 296.84 15.88
  Q 298.19 12.52 294.86 11.47
  Q 292.55 10.74 291.61 10.55
  A 7.23 6.59 47.7 0 0 290.33 10.43
  L 224.41 10.30
  A 0.27 0.27 0.0 0 0 224.14 10.57
  L 224.14 10.88
  A 0.30 0.29 -85.4 0 0 224.38 11.17
  L 244.54 15.03"
/>
<path stroke="#93181b" vector-effect="non-scaling-stroke" d="
  M 296.84 15.88
  Q 287.45 14.66 278.00 14.65
  Q 261.27 14.64 244.54 15.03"
/>
<path stroke="#be1c23" vector-effect="non-scaling-stroke" d="
  M 266.11 19.34
  L 243.19 18.54"
/>
<path stroke="#cd1d25" vector-effect="non-scaling-stroke" d="
  M 260.20 33.09
  L 237.02 33.41"
/>
<path stroke="#a2191d" vector-effect="non-scaling-stroke" d="
  M 288.57 36.65
  L 235.85 37.17"
/>
<path stroke="#d41c24" vector-effect="non-scaling-stroke" d="
  M 290.91 30.93
  Q 278.00 30.74 268.83 31.09
  Q 267.71 31.14 266.36 31.59"
/>
<path stroke="#730d12" vector-effect="non-scaling-stroke" d="
  M 8.92 20.86
  Q 8.83 20.94 8.73 21.11
  A 0.40 0.38 -40.5 0 0 8.69 21.48
  Q 9.83 24.65 12.91 25.36
  Q 16.36 26.15 32.43 29.34
  Q 35.22 29.89 35.11 32.27"
/>
<path stroke="#610f12" vector-effect="non-scaling-stroke" d="
  M 35.11 32.27
  Q 32.10 35.26 25.32 34.17
  A 0.55 0.54 -73.9 0 1 24.91 33.42
  L 25.92 31.03
  A 0.69 0.69 0.0 0 0 25.43 30.09
  L 7.02 26.23
  A 0.64 0.62 -71.9 0 0 6.31 26.60
  L 2.33 36.02"
/>
<path stroke="#410a0b" vector-effect="non-scaling-stroke" d="
  M 2.33 36.02
  Q 0.90 39.54 4.08 41.19
  Q 6.68 42.55 11.51 42.58
  Q 28.00 42.72 44.50 42.74
  C 50.18 42.75 56.94 41.71 59.94 36.11"
/>
<path stroke="#610f12" vector-effect="non-scaling-stroke" d="
  M 59.94 36.11
  L 61.77 32.35"
/>
<path stroke="#730d12" vector-effect="non-scaling-stroke" d="
  M 61.77 32.35
  C 63.80 28.45 63.19 26.54 58.86 25.42
  Q 48.25 22.68 38.19 20.71"
/>
<path stroke="#410a0b" vector-effect="non-scaling-stroke" d="
  M 38.19 20.71
  Q 37.61 20.32 37.29 20.10
  A 1.30 1.30 0.0 0 1 38.02 17.73
  L 228.15 17.73
  A 0.92 0.89 -65.1 0 0 228.75 17.50
  Q 229.76 16.59 229.96 14.85
  A 0.71 0.71 0.0 0 0 229.42 14.08
  C 222.52 12.43 214.67 10.16 206.91 10.36
  C 200.64 10.53 192.34 10.08 186.32 10.14
  Q 156.18 10.41 133.60 10.30
  C 95.11 10.12 60.24 10.56 23.50 10.19
  C 16.14 10.12 10.50 13.40 8.92 20.86"
/>
<path stroke="#b4171d" vector-effect="non-scaling-stroke" d="
  M 38.19 20.71
  Q 23.77 21.80 9.76 21.02
  Q 9.39 21.00 8.92 20.86"
/>
<path stroke="#d41c24" vector-effect="non-scaling-stroke" d="
  M 61.77 32.35
  L 35.11 32.27"
/>
<path stroke="#a2191d" vector-effect="non-scaling-stroke" d="
  M 59.94 36.11
  L 2.33 36.02"
/>
<path stroke="#410a0b" vector-effect="non-scaling-stroke" d="
  M 64.64 30.51
  L 61.79 37.38
  A 1.69 1.67 -38.5 0 0 61.68 38.31
  Q 62.46 42.83 67.53 42.80
  Q 84.67 42.70 90.75 42.59
  C 95.63 42.51 100.57 41.52 102.31 36.58"
/>
<path stroke="#6c0e13" vector-effect="non-scaling-stroke" d="
  M 102.31 36.58
  L 109.28 19.50
  A 0.37 0.37 0.0 0 0 108.94 18.99
  L 91.16 18.99
  A 0.76 0.75 10.9 0 0 90.46 19.46
  L 83.49 36.38"
/>
<path stroke="#410a0b" vector-effect="non-scaling-stroke" d="
  M 83.49 36.38
  Q 82.61 37.01 81.91 36.94
  A 0.94 0.94 0.0 0 1 81.13 35.64
  L 83.39 30.31"
/>
<path stroke="#6c0e13" vector-effect="non-scaling-stroke" d="
  M 83.39 30.31
  L 87.84 19.62
  A 0.35 0.35 0.0 0 0 87.52 19.14
  L 41.89 19.14
  A 0.24 0.24 0.0 0 0 41.84 19.62
  L 66.68 24.84
  A 0.41 0.40 -72.0 0 1 66.96 25.41
  L 64.64 30.51"
/>
<path stroke="#ad181e" vector-effect="non-scaling-stroke" d="
  M 83.39 30.31
  L 64.64 30.51"
/>
<path stroke="#ad181e" vector-effect="non-scaling-stroke" d="
  M 102.31 36.58
  L 83.49 36.38"
/>
<path stroke="#520e10" vector-effect="non-scaling-stroke" d="
  M 106.35 31.66
  L 102.33 41.52
  A 0.37 0.36 10.9 0 0 102.67 42.02
  L 119.54 42.02
  A 0.84 0.82 11.0 0 0 120.31 41.51
  L 124.32 32.17"
/>
<path stroke="#6c0e13" vector-effect="non-scaling-stroke" d="
  M 124.32 32.17
  L 127.13 25.70
  A 1.38 1.37 -78.2 0 1 128.39 24.87
  L 128.91 24.87
  A 0.90 0.90 0.0 0 1 129.74 26.12
  L 125.80 35.41
  A 0.43 0.42 -78.8 0 0 126.19 36.00
  Q 133.85 35.98 135.90 36.09
  C 139.64 36.28 143.17 35.25 145.19 32.52
  C 146.56 30.66 147.41 27.52 148.68 24.93
  A 2.88 2.72 61.0 0 0 148.96 23.84
  C 149.11 19.90 145.45 19.13 142.10 19.15
  Q 123.45 19.21 112.13 18.99
  A 0.57 0.57 0.0 0 0 111.59 19.34
  L 106.35 31.66"
/>
<path stroke="#be1c23" vector-effect="non-scaling-stroke" d="
  M 124.32 32.17
  L 106.35 31.66"
/>
<path stroke="#410a0b" vector-effect="non-scaling-stroke" d="
  M 146.89 34.09
  L 143.76 41.51
  A 0.59 0.58 11.4 0 0 144.30 42.32
  L 176.70 42.32
  A 1.66 1.65 -78.4 0 0 178.22 41.31
  L 179.84 37.47
  A 0.59 0.58 11.6 0 0 179.30 36.66
  L 164.88 36.66
  A 0.60 0.59 87.3 0 1 164.29 36.11
  Q 164.21 35.33 164.49 34.50"
/>
<path stroke="#6c0e13" vector-effect="non-scaling-stroke" d="
  M 164.49 34.50
  Q 165.03 33.99 165.74 33.91
  Q 172.08 33.15 178.61 33.63
  A 1.68 1.68 0.0 0 0 180.28 32.61
  L 181.87 28.84
  A 0.59 0.59 0.0 0 0 181.32 28.02
  L 168.19 28.02
  A 0.58 0.58 0.0 0 1 167.66 27.22
  L 168.33 25.64
  A 1.49 1.48 11.3 0 1 169.70 24.73
  L 183.62 24.73
  A 2.16 2.14 11.2 0 0 185.61 23.41
  L 186.95 20.26
  A 0.80 0.80 0.0 0 0 186.21 19.15
  L 153.97 19.15
  A 1.23 1.22 -78.2 0 0 152.85 19.89
  L 146.89 34.09"
/>
<path stroke="#ad181e" vector-effect="non-scaling-stroke" d="
  M 164.49 34.50
  L 163.82 34.24
  A 2.27 2.24 -34.1 0 0 163.01 34.09
  L 146.89 34.09"
/>
<path stroke="#410a0b" vector-effect="non-scaling-stroke" d="
  M 182.71 35.80
  L 180.40 41.71
  A 0.46 0.45 -79.3 0 0 180.82 42.33
  L 197.03 42.33
  A 1.29 1.29 0.0 0 0 198.22 41.54
  L 200.64 35.81"
/>
<path stroke="#6c0e13" vector-effect="non-scaling-stroke" d="
  M 200.64 35.81
  L 205.17 25.52
  A 1.15 1.14 11.8 0 1 206.22 24.84
  L 206.76 24.84
  A 0.97 0.97 0.0 0 1 207.66 26.16
  L 204.47 34.31"
/>
<path stroke="#410a0b" vector-effect="non-scaling-stroke" d="
  M 204.47 34.31
  Q 203.82 37.73 206.22 41.62
  A 1.50 1.47 73.8 0 0 207.48 42.33
  L 223.31 42.33
  A 0.43 0.42 75.9 0 0 223.68 41.70
  L 219.86 34.40"
/>
<path stroke="#6c0e13" vector-effect="non-scaling-stroke" d="
  M 219.86 34.40
  Q 222.83 33.85 224.02 31.52
  Q 226.10 27.42 227.16 22.83
  A 2.17 2.16 20.9 0 0 226.08 20.43
  Q 223.52 19.04 221.00 19.12
  Q 219.27 19.18 189.90 19.16
  A 0.77 0.76 10.7 0 0 189.19 19.64
  L 182.71 35.80"
/>
<path stroke="#ad181e" vector-effect="non-scaling-stroke" d="
  M 219.86 34.40
  Q 212.64 33.52 204.47 34.31"
/>
<path stroke="#ad181e" vector-effect="non-scaling-stroke" d="
  M 200.64 35.81
  L 182.71 35.80"
/>
<path stroke="#6c0e13" vector-effect="non-scaling-stroke" d="
  M 236.58 28.64
  A 0.45 0.45 0.0 0 0 236.16 28.01
  L 228.02 28.01
  A 0.45 0.45 0.0 0 0 227.60 28.28
  L 225.61 32.98
  A 0.45 0.45 0.0 0 0 226.03 33.61
  L 234.17 33.61
  A 0.45 0.45 0.0 0 0 234.59 33.34
  L 236.58 28.64"
/>
<path stroke="#2e2c22" vector-effect="non-scaling-stroke" d="
  M 124.13 39.15
  Q 124.41 38.95 124.66 38.27
  A 0.34 0.34 0.0 0 0 124.08 37.94
  Q 123.86 38.22 123.70 38.85
  A 0.28 0.28 0.0 0 0 124.13 39.15"
/>
<path stroke="#2e2c22" vector-effect="non-scaling-stroke" d="
  M 99.82 43.41
  A 0.53 0.48 -88.2 0 0 100.47 42.73
  Q 100.36 42.42 100.13 42.42
  Q 99.63 42.42 99.66 42.98
  Q 99.68 43.34 99.82 43.41"
/>
</g>
<path fill="#000000" d="
  M 299.64 15.97
  Q 295.93 20.51 295.50 22.50
  Q 294.51 27.10 293.00 30.77
  Q 290.39 37.13 289.97 38.25
  Q 288.96 40.93 285.96 42.18
  A 0.82 0.82 0.0 0 0 285.45 42.91
  L 285.38 44.07
  Q 262.64 45.49 243.07 44.94
  Q 241.42 44.89 237.77 43.50
  Q 233.52 41.88 233.22 37.27
  A 0.73 0.73 0.0 0 0 232.65 36.61
  Q 230.29 36.07 226.94 36.58
  A 3.21 2.37 55.1 0 1 224.69 35.82
  Q 224.28 35.47 223.91 35.55
  A 0.42 0.42 0.0 0 0 223.63 36.18
  C 225.43 39.15 228.25 42.50 225.47 44.66
  A 1.19 1.18 25.6 0 1 224.74 44.91
  L 205.51 44.91
  A 1.05 1.04 80.0 0 1 204.53 44.22
  L 203.20 40.53
  A 0.79 0.78 -45.3 0 0 201.72 40.54
  Q 200.75 43.33 199.32 44.46
  A 1.69 1.67 25.4 0 1 198.32 44.81
  Q 180.03 44.90 144.01 44.83
  C 138.81 44.82 141.55 38.81 143.54 36.97
  A 0.20 0.19 48.0 0 0 143.55 36.69
  A 0.19 0.18 46.1 0 0 143.29 36.68
  Q 141.19 38.59 139.66 38.67
  Q 135.98 38.87 125.86 38.73
  A 2.20 2.20 0.0 0 0 123.69 40.40
  Q 123.29 41.97 122.07 43.76
  C 121.28 44.91 119.34 44.65 117.89 44.65
  Q 110.92 44.66 103.00 44.85
  Q 101.21 44.89 100.14 43.72
  A 0.72 0.71 -30.9 0 0 99.37 43.53
  L 96.07 44.72
  A 3.64 3.56 -54.7 0 1 94.92 44.93
  Q 83.35 45.17 69.11 45.33
  C 65.61 45.37 61.82 44.45 59.74 42.02
  A 0.96 0.96 0.0 0 0 58.39 41.92
  Q 57.57 42.61 56.06 43.27
  Q 51.29 45.33 45.22 45.27
  Q 26.67 45.09 10.47 44.99
  C 5.78 44.96 1.27 44.52 0.00 39.76
  L 0.00 35.38
  L 1.37 32.40
  L 5.27 25.57
  A 1.68 1.66 4.7 0 1 6.19 24.80
  Q 6.70 24.62 7.23 24.64
  A 0.57 0.56 85.6 0 0 7.81 23.96
  Q 7.45 22.18 6.49 22.06
  Q 6.18 21.19 6.22 20.00
  L 6.56 20.18
  A 0.56 0.56 0.0 0 0 7.35 19.89
  L 10.02 13.16
  Q 12.41 9.26 17.00 8.49
  Q 21.83 7.69 31.00 7.69
  Q 111.64 7.64 212.18 7.67
  A 2.22 1.91 -35.2 0 1 212.59 7.71
  L 221.30 9.73
  A 0.03 0.02 59.6 0 0 221.31 9.68
  Q 221.21 9.64 221.40 8.83
  Q 221.59 8.00 222.53 8.00
  Q 270.70 8.02 284.68 7.98
  C 286.86 7.97 289.42 7.13 291.98 8.10
  A 2.89 2.75 -34.7 0 0 293.13 8.28
  Q 297.12 8.09 299.30 11.30
  A 1.74 1.68 -63.7 0 1 299.60 12.24
  L 299.64 15.97
  Z
  M 244.54 15.03
  L 243.19 18.54
  L 237.02 33.41
  L 235.85 37.17
  Q 235.77 39.43 238.03 40.76
  Q 241.07 42.55 245.76 42.52
  Q 261.77 42.40 277.78 42.19
  C 282.30 42.13 286.98 41.38 288.57 36.65
  L 290.91 30.93
  L 293.63 23.73
  A 0.39 0.38 4.6 0 0 293.19 23.22
  L 265.15 28.67
  A 1.53 1.39 21.1 0 0 264.74 28.83
  Q 263.70 29.46 263.36 30.93
  A 0.71 0.70 85.7 0 0 264.31 31.75
  Q 265.20 31.40 266.36 31.59
  Q 263.23 36.71 260.20 33.09
  L 266.11 19.34
  Q 268.16 17.36 271.11 18.37
  A 0.52 0.51 20.9 0 1 271.42 19.05
  L 268.81 25.20
  A 0.40 0.39 -84.3 0 0 269.25 25.74
  L 293.75 20.97
  A 1.96 1.96 0.0 0 0 294.97 20.21
  Q 296.30 18.41 296.84 15.88
  Q 298.19 12.52 294.86 11.47
  Q 292.55 10.74 291.61 10.55
  A 7.23 6.59 47.7 0 0 290.33 10.43
  L 224.41 10.30
  A 0.27 0.27 0.0 0 0 224.14 10.57
  L 224.14 10.88
  A 0.30 0.29 -85.4 0 0 224.38 11.17
  L 244.54 15.03
  Z
  M 8.92 20.86
  Q 8.83 20.94 8.73 21.11
  A 0.40 0.38 -40.5 0 0 8.69 21.48
  Q 9.83 24.65 12.91 25.36
  Q 16.36 26.15 32.43 29.34
  Q 35.22 29.89 35.11 32.27
  Q 32.10 35.26 25.32 34.17
  A 0.55 0.54 -73.9 0 1 24.91 33.42
  L 25.92 31.03
  A 0.69 0.69 0.0 0 0 25.43 30.09
  L 7.02 26.23
  A 0.64 0.62 -71.9 0 0 6.31 26.60
  L 2.33 36.02
  Q 0.90 39.54 4.08 41.19
  Q 6.68 42.55 11.51 42.58
  Q 28.00 42.72 44.50 42.74
  C 50.18 42.75 56.94 41.71 59.94 36.11
  L 61.77 32.35
  C 63.80 28.45 63.19 26.54 58.86 25.42
  Q 48.25 22.68 38.19 20.71
  Q 37.61 20.32 37.29 20.10
  A 1.30 1.30 0.0 0 1 38.02 17.73
  L 228.15 17.73
  A 0.92 0.89 -65.1 0 0 228.75 17.50
  Q 229.76 16.59 229.96 14.85
  A 0.71 0.71 0.0 0 0 229.42 14.08
  C 222.52 12.43 214.67 10.16 206.91 10.36
  C 200.64 10.53 192.34 10.08 186.32 10.14
  Q 156.18 10.41 133.60 10.30
  C 95.11 10.12 60.24 10.56 23.50 10.19
  C 16.14 10.12 10.50 13.40 8.92 20.86
  Z
  M 64.64 30.51
  L 61.79 37.38
  A 1.69 1.67 -38.5 0 0 61.68 38.31
  Q 62.46 42.83 67.53 42.80
  Q 84.67 42.70 90.75 42.59
  C 95.63 42.51 100.57 41.52 102.31 36.58
  L 109.28 19.50
  A 0.37 0.37 0.0 0 0 108.94 18.99
  L 91.16 18.99
  A 0.76 0.75 10.9 0 0 90.46 19.46
  L 83.49 36.38
  Q 82.61 37.01 81.91 36.94
  A 0.94 0.94 0.0 0 1 81.13 35.64
  L 83.39 30.31
  L 87.84 19.62
  A 0.35 0.35 0.0 0 0 87.52 19.14
  L 41.89 19.14
  A 0.24 0.24 0.0 0 0 41.84 19.62
  L 66.68 24.84
  A 0.41 0.40 -72.0 0 1 66.96 25.41
  L 64.64 30.51
  Z
  M 106.35 31.66
  L 102.33 41.52
  A 0.37 0.36 10.9 0 0 102.67 42.02
  L 119.54 42.02
  A 0.84 0.82 11.0 0 0 120.31 41.51
  L 124.32 32.17
  L 127.13 25.70
  A 1.38 1.37 -78.2 0 1 128.39 24.87
  L 128.91 24.87
  A 0.90 0.90 0.0 0 1 129.74 26.12
  L 125.80 35.41
  A 0.43 0.42 -78.8 0 0 126.19 36.00
  Q 133.85 35.98 135.90 36.09
  C 139.64 36.28 143.17 35.25 145.19 32.52
  C 146.56 30.66 147.41 27.52 148.68 24.93
  A 2.88 2.72 61.0 0 0 148.96 23.84
  C 149.11 19.90 145.45 19.13 142.10 19.15
  Q 123.45 19.21 112.13 18.99
  A 0.57 0.57 0.0 0 0 111.59 19.34
  L 106.35 31.66
  Z
  M 146.89 34.09
  L 143.76 41.51
  A 0.59 0.58 11.4 0 0 144.30 42.32
  L 176.70 42.32
  A 1.66 1.65 -78.4 0 0 178.22 41.31
  L 179.84 37.47
  A 0.59 0.58 11.6 0 0 179.30 36.66
  L 164.88 36.66
  A 0.60 0.59 87.3 0 1 164.29 36.11
  Q 164.21 35.33 164.49 34.50
  Q 165.03 33.99 165.74 33.91
  Q 172.08 33.15 178.61 33.63
  A 1.68 1.68 0.0 0 0 180.28 32.61
  L 181.87 28.84
  A 0.59 0.59 0.0 0 0 181.32 28.02
  L 168.19 28.02
  A 0.58 0.58 0.0 0 1 167.66 27.22
  L 168.33 25.64
  A 1.49 1.48 11.3 0 1 169.70 24.73
  L 183.62 24.73
  A 2.16 2.14 11.2 0 0 185.61 23.41
  L 186.95 20.26
  A 0.80 0.80 0.0 0 0 186.21 19.15
  L 153.97 19.15
  A 1.23 1.22 -78.2 0 0 152.85 19.89
  L 146.89 34.09
  Z
  M 182.71 35.80
  L 180.40 41.71
  A 0.46 0.45 -79.3 0 0 180.82 42.33
  L 197.03 42.33
  A 1.29 1.29 0.0 0 0 198.22 41.54
  L 200.64 35.81
  L 205.17 25.52
  A 1.15 1.14 11.8 0 1 206.22 24.84
  L 206.76 24.84
  A 0.97 0.97 0.0 0 1 207.66 26.16
  L 204.47 34.31
  Q 203.82 37.73 206.22 41.62
  A 1.50 1.47 73.8 0 0 207.48 42.33
  L 223.31 42.33
  A 0.43 0.42 75.9 0 0 223.68 41.70
  L 219.86 34.40
  Q 222.83 33.85 224.02 31.52
  Q 226.10 27.42 227.16 22.83
  A 2.17 2.16 20.9 0 0 226.08 20.43
  Q 223.52 19.04 221.00 19.12
  Q 219.27 19.18 189.90 19.16
  A 0.77 0.76 10.7 0 0 189.19 19.64
  L 182.71 35.80
  Z
  M 236.58 28.64
  A 0.45 0.45 0.0 0 0 236.16 28.01
  L 228.02 28.01
  A 0.45 0.45 0.0 0 0 227.60 28.28
  L 225.61 32.98
  A 0.45 0.45 0.0 0 0 226.03 33.61
  L 234.17 33.61
  A 0.45 0.45 0.0 0 0 234.59 33.34
  L 236.58 28.64
  Z
  M 124.13 39.15
  Q 124.41 38.95 124.66 38.27
  A 0.34 0.34 0.0 0 0 124.08 37.94
  Q 123.86 38.22 123.70 38.85
  A 0.28 0.28 0.0 0 0 124.13 39.15
  Z
  M 99.82 43.41
  A 0.53 0.48 -88.2 0 0 100.47 42.73
  Q 100.36 42.42 100.13 42.42
  Q 99.63 42.42 99.66 42.98
  Q 99.68 43.34 99.82 43.41
  Z"
/>
<path fill="#811416" d="
  M 296.84 15.88
  Q 287.45 14.66 278.00 14.65
  Q 261.27 14.64 244.54 15.03
  L 224.38 11.17
  A 0.30 0.29 -85.4 0 1 224.14 10.88
  L 224.14 10.57
  A 0.27 0.27 0.0 0 1 224.41 10.30
  L 290.33 10.43
  A 7.23 6.59 47.7 0 1 291.61 10.55
  Q 292.55 10.74 294.86 11.47
  Q 298.19 12.52 296.84 15.88
  Z"
/>
<path fill="#811416" d="
  M 38.19 20.71
  Q 23.77 21.80 9.76 21.02
  Q 9.39 21.00 8.92 20.86
  C 10.50 13.40 16.14 10.12 23.50 10.19
  C 60.24 10.56 95.11 10.12 133.60 10.30
  Q 156.18 10.41 186.32 10.14
  C 192.34 10.08 200.64 10.53 206.91 10.36
  C 214.67 10.16 222.52 12.43 229.42 14.08
  A 0.71 0.71 0.0 0 1 229.96 14.85
  Q 229.76 16.59 228.75 17.50
  A 0.92 0.89 -65.1 0 1 228.15 17.73
  L 38.02 17.73
  A 1.30 1.30 0.0 0 0 37.29 20.10
  Q 37.61 20.32 38.19 20.71
  Z"
/>
<path fill="#5c5744" d="
  M 10.02 13.16
  L 7.35 19.89
  A 0.56 0.56 0.0 0 1 6.56 20.18
  L 6.22 20.00
  Q 7.10 16.33 10.02 13.16
  Z"
/>
<path fill="#a41b20" d="
  M 296.84 15.88
  Q 296.30 18.41 294.97 20.21
  A 1.96 1.96 0.0 0 1 293.75 20.97
  L 269.25 25.74
  A 0.40 0.39 -84.3 0 1 268.81 25.20
  L 271.42 19.05
  A 0.52 0.51 20.9 0 0 271.11 18.37
  Q 268.16 17.36 266.11 19.34
  L 243.19 18.54
  L 244.54 15.03
  Q 261.27 14.64 278.00 14.65
  Q 287.45 14.66 296.84 15.88
  Z"
/>
<path fill="#5c5744" d="
  M 299.64 15.97
  Q 295.64 26.50 291.69 36.69
  Q 290.16 40.63 285.38 44.07
  L 285.45 42.91
  A 0.82 0.82 0.0 0 1 285.96 42.18
  Q 288.96 40.93 289.97 38.25
  Q 290.39 37.13 293.00 30.77
  Q 294.51 27.10 295.50 22.50
  Q 295.93 20.51 299.64 15.97
  Z"
/>
<path fill="#d81c25" d="
  M 266.11 19.34
  L 260.20 33.09
  L 237.02 33.41
  L 243.19 18.54
  L 266.11 19.34
  Z"
/>
<path fill="#d81c25" d="
  M 83.39 30.31
  L 64.64 30.51
  L 66.96 25.41
  A 0.41 0.40 -72.0 0 0 66.68 24.84
  L 41.84 19.62
  A 0.24 0.24 0.0 0 1 41.89 19.14
  L 87.52 19.14
  A 0.35 0.35 0.0 0 1 87.84 19.62
  L 83.39 30.31
  Z"
/>
<path fill="#d81c25" d="
  M 102.31 36.58
  L 83.49 36.38
  L 90.46 19.46
  A 0.76 0.75 10.9 0 1 91.16 18.99
  L 108.94 18.99
  A 0.37 0.37 0.0 0 1 109.28 19.50
  L 102.31 36.58
  Z"
/>
<path fill="#d81c25" d="
  M 124.32 32.17
  L 106.35 31.66
  L 111.59 19.34
  A 0.57 0.57 0.0 0 1 112.13 18.99
  Q 123.45 19.21 142.10 19.15
  C 145.45 19.13 149.11 19.90 148.96 23.84
  A 2.88 2.72 61.0 0 1 148.68 24.93
  C 147.41 27.52 146.56 30.66 145.19 32.52
  C 143.17 35.25 139.64 36.28 135.90 36.09
  Q 133.85 35.98 126.19 36.00
  A 0.43 0.42 -78.8 0 1 125.80 35.41
  L 129.74 26.12
  A 0.90 0.90 0.0 0 0 128.91 24.87
  L 128.39 24.87
  A 1.38 1.37 -78.2 0 0 127.13 25.70
  L 124.32 32.17
  Z"
/>
<path fill="#d81c25" d="
  M 164.49 34.50
  L 163.82 34.24
  A 2.27 2.24 -34.1 0 0 163.01 34.09
  L 146.89 34.09
  L 152.85 19.89
  A 1.23 1.22 -78.2 0 1 153.97 19.15
  L 186.21 19.15
  A 0.80 0.80 0.0 0 1 186.95 20.26
  L 185.61 23.41
  A 2.16 2.14 11.2 0 1 183.62 24.73
  L 169.70 24.73
  A 1.49 1.48 11.3 0 0 168.33 25.64
  L 167.66 27.22
  A 0.58 0.58 0.0 0 0 168.19 28.02
  L 181.32 28.02
  A 0.59 0.59 0.0 0 1 181.87 28.84
  L 180.28 32.61
  A 1.68 1.68 0.0 0 1 178.61 33.63
  Q 172.08 33.15 165.74 33.91
  Q 165.03 33.99 164.49 34.50
  Z"
/>
<path fill="#d81c25" d="
  M 219.86 34.40
  Q 212.64 33.52 204.47 34.31
  L 207.66 26.16
  A 0.97 0.97 0.0 0 0 206.76 24.84
  L 206.22 24.84
  A 1.15 1.14 11.8 0 0 205.17 25.52
  L 200.64 35.81
  L 182.71 35.80
  L 189.19 19.64
  A 0.77 0.76 10.7 0 1 189.90 19.16
  Q 219.27 19.18 221.00 19.12
  Q 223.52 19.04 226.08 20.43
  A 2.17 2.16 20.9 0 1 227.16 22.83
  Q 226.10 27.42 224.02 31.52
  Q 222.83 33.85 219.86 34.40
  Z"
/>
<path fill="#e61924" d="
  M 38.19 20.71
  Q 48.25 22.68 58.86 25.42
  C 63.19 26.54 63.80 28.45 61.77 32.35
  L 35.11 32.27
  Q 35.22 29.89 32.43 29.34
  Q 16.36 26.15 12.91 25.36
  Q 9.83 24.65 8.69 21.48
  A 0.40 0.38 -40.5 0 1 8.73 21.11
  Q 8.83 20.94 8.92 20.86
  Q 9.39 21.00 9.76 21.02
  Q 23.77 21.80 38.19 20.71
  Z"
/>
<path fill="#5c5744" d="
  M 1.37 32.40
  Q 2.28 26.41 6.49 22.06
  Q 7.45 22.18 7.81 23.96
  A 0.57 0.56 85.6 0 1 7.23 24.64
  Q 6.70 24.62 6.19 24.80
  A 1.68 1.66 4.7 0 0 5.27 25.57
  L 1.37 32.40
  Z"
/>
<path fill="#e61924" d="
  M 290.91 30.93
  Q 278.00 30.74 268.83 31.09
  Q 267.71 31.14 266.36 31.59
  Q 265.20 31.40 264.31 31.75
  A 0.71 0.70 85.7 0 1 263.36 30.93
  Q 263.70 29.46 264.74 28.83
  A 1.53 1.39 21.1 0 1 265.15 28.67
  L 293.19 23.22
  A 0.39 0.38 4.6 0 1 293.63 23.73
  L 290.91 30.93
  Z"
/>
<path fill="#c21e24" d="
  M 35.11 32.27
  L 61.77 32.35
  L 59.94 36.11
  L 2.33 36.02
  L 6.31 26.60
  A 0.64 0.62 -71.9 0 1 7.02 26.23
  L 25.43 30.09
  A 0.69 0.69 0.0 0 1 25.92 31.03
  L 24.91 33.42
  A 0.55 0.54 -73.9 0 0 25.32 34.17
  Q 32.10 35.26 35.11 32.27
  Z"
/>
<path fill="#d81c25" d="
  M 236.58 28.64
  L 234.59 33.34
  A 0.45 0.45 0.0 0 1 234.17 33.61
  L 226.03 33.61
  A 0.45 0.45 0.0 0 1 225.61 32.98
  L 227.60 28.28
  A 0.45 0.45 0.0 0 1 228.02 28.01
  L 236.16 28.01
  A 0.45 0.45 0.0 0 1 236.58 28.64
  Z"
/>
<path fill="#811416" d="
  M 83.39 30.31
  L 81.13 35.64
  A 0.94 0.94 0.0 0 0 81.91 36.94
  Q 82.61 37.01 83.49 36.38
  L 102.31 36.58
  C 100.57 41.52 95.63 42.51 90.75 42.59
  Q 84.67 42.70 67.53 42.80
  Q 62.46 42.83 61.68 38.31
  A 1.69 1.67 -38.5 0 1 61.79 37.38
  L 64.64 30.51
  L 83.39 30.31
  Z"
/>
<path fill="#c21e24" d="
  M 290.91 30.93
  L 288.57 36.65
  L 235.85 37.17
  L 237.02 33.41
  L 260.20 33.09
  Q 263.23 36.71 266.36 31.59
  Q 267.71 31.14 268.83 31.09
  Q 278.00 30.74 290.91 30.93
  Z"
/>
<path fill="#a41b20" d="
  M 106.35 31.66
  L 124.32 32.17
  L 120.31 41.51
  A 0.84 0.82 11.0 0 1 119.54 42.02
  L 102.67 42.02
  A 0.37 0.36 10.9 0 1 102.33 41.52
  L 106.35 31.66
  Z"
/>
<path fill="#811416" d="
  M 146.89 34.09
  L 163.01 34.09
  A 2.27 2.24 -34.1 0 1 163.82 34.24
  L 164.49 34.50
  Q 164.21 35.33 164.29 36.11
  A 0.60 0.59 87.3 0 0 164.88 36.66
  L 179.30 36.66
  A 0.59 0.58 11.6 0 1 179.84 37.47
  L 178.22 41.31
  A 1.66 1.65 -78.4 0 1 176.70 42.32
  L 144.30 42.32
  A 0.59 0.58 11.4 0 1 143.76 41.51
  L 146.89 34.09
  Z"
/>
<path fill="#811416" d="
  M 219.86 34.40
  L 223.68 41.70
  A 0.43 0.42 75.9 0 1 223.31 42.33
  L 207.48 42.33
  A 1.50 1.47 73.8 0 1 206.22 41.62
  Q 203.82 37.73 204.47 34.31
  Q 212.64 33.52 219.86 34.40
  Z"
/>
<path fill="#811416" d="
  M 200.64 35.81
  L 198.22 41.54
  A 1.29 1.29 0.0 0 1 197.03 42.33
  L 180.82 42.33
  A 0.46 0.45 -79.3 0 1 180.40 41.71
  L 182.71 35.80
  L 200.64 35.81
  Z"
/>
<path fill="#811416" d="
  M 2.33 36.02
  L 59.94 36.11
  C 56.94 41.71 50.18 42.75 44.50 42.74
  Q 28.00 42.72 11.51 42.58
  Q 6.68 42.55 4.08 41.19
  Q 0.90 39.54 2.33 36.02
  Z"
/>
<path fill="#811416" d="
  M 288.57 36.65
  C 286.98 41.38 282.30 42.13 277.78 42.19
  Q 261.77 42.40 245.76 42.52
  Q 241.07 42.55 238.03 40.76
  Q 235.77 39.43 235.85 37.17
  L 288.57 36.65
  Z"
/>
<path fill="#5c5744" d="
  M 123.70 38.85
  Q 123.86 38.22 124.08 37.94
  A 0.34 0.34 0.0 0 1 124.66 38.27
  Q 124.41 38.95 124.13 39.15
  A 0.28 0.28 0.0 0 1 123.70 38.85
  Z"
/>
<path fill="#5c5744" d="
  M 99.82 43.41
  Q 99.68 43.34 99.66 42.98
  Q 99.63 42.42 100.13 42.42
  Q 100.36 42.42 100.47 42.73
  A 0.53 0.48 -88.2 0 1 99.82 43.41
  Z"
/>
</svg>
